<svg xmlns="http://www.w3.org/2000/svg" viewBox="0 0 1024 1024"><g transform="translate(0,1024) scale(1,-1)"><path fill="currentColor" d="M128 725L128 725L896 725Q914 725 926 713L926 713Q939 700 939 683L939 683Q939 665 926 652L926 652Q914 640 896 640L896 640L128 640Q110 640 98 652L98 652Q85 665 85 683L85 683Q85 700 98 713L98 713Q110 725 128 725ZM128 213L128 213L725 213Q743 213 755 201L755 201Q768 188 768 171L768 171Q768 153 756 140L756 140Q743 128 725 128L725 128L128 128Q110 128 98 140L98 140Q85 153 85 171L85 171Q85 188 98 201L98 201Q110 213 128 213ZM128 384L128 384L896 384Q914 384 926 371L926 371Q939 359 939 341L939 341Q939 324 926 311L926 311Q914 299 896 299L896 299L128 299Q110 299 98 311L98 311Q85 324 85 341L85 341Q85 359 98 371L98 371Q110 384 128 384ZM128 555L128 555L725 555Q743 555 755 542L755 542Q768 530 768 512L768 512Q768 494 756 482L756 482Q743 469 725 469L725 469L128 469Q110 469 98 482L98 482Q85 494 85 512L85 512Q85 530 98 542L98 542Q110 555 128 555Z"/></g></svg>