<svg xmlns="http://www.w3.org/2000/svg" viewBox="0 0 1024 1024"><g transform="translate(0,1024) scale(1,-1)"><path fill="currentColor" d="M128 725L128 725L896 725Q914 725 926 713L926 713Q939 700 939 683L939 683Q939 665 926 652L926 652Q914 640 896 640L896 640L128 640Q110 640 98 652L98 652Q85 665 85 683L85 683Q85 700 98 713L98 713Q110 725 128 725ZM213 213L213 213L811 213Q828 213 841 201L841 201Q853 188 853 171L853 171Q853 153 841 140L841 140Q828 128 811 128L811 128L213 128Q196 128 183 140L183 140Q171 153 171 171L171 171Q171 188 183 201L183 201Q196 213 213 213L213 213ZM128 384L128 384L896 384Q914 384 926 371L926 371Q939 359 939 341L939 341Q939 324 926 311L926 311Q914 299 896 299L896 299L128 299Q110 299 98 311L98 311Q85 324 85 341L85 341Q85 359 98 371L98 371Q110 384 128 384ZM213 555L213 555L811 555Q828 555 841 542L841 542Q853 530 853 512L853 512Q853 494 841 482L841 482Q828 469 811 469L811 469L213 469Q196 469 183 482L183 482Q171 494 171 512L171 512Q171 530 183 542L183 542Q196 555 213 555L213 555Z"/></g></svg>