<svg xmlns="http://www.w3.org/2000/svg" viewBox="0 0 1024 1024"><g transform="translate(0,1024) scale(1,-1)"><path fill="currentColor" d="M128 725L128 725L896 725Q914 725 926 713L926 713Q939 700 939 683L939 683Q939 665 926 652L926 652Q914 640 896 640L896 640L128 640Q110 640 98 652L98 652Q85 665 85 683L85 683Q85 700 98 713L98 713Q110 725 128 725ZM299 213L299 213L896 213Q914 213 926 201L926 201Q939 188 939 171L939 171Q939 153 926 140L926 140Q914 128 896 128L896 128L299 128Q281 128 269 140L269 140Q256 153 256 171L256 171Q256 188 268 201L268 201Q281 213 299 213L299 213ZM128 384L128 384L896 384Q914 384 926 371L926 371Q939 359 939 341L939 341Q939 324 926 311L926 311Q914 299 896 299L896 299L128 299Q110 299 98 311L98 311Q85 324 85 341L85 341Q85 359 98 371L98 371Q110 384 128 384ZM299 555L299 555L896 555Q914 555 926 542L926 542Q939 530 939 512L939 512Q939 494 926 482L926 482Q914 469 896 469L896 469L299 469Q281 469 269 482L269 482Q256 494 256 512L256 512Q256 530 268 542L268 542Q281 555 299 555L299 555Z"/></g></svg>