<svg xmlns="http://www.w3.org/2000/svg" viewBox="0 0 1024 1024"><g transform="translate(0,1024) scale(1,-1)"><path fill="currentColor" d="M666 512L666 512Q697 534 716.50 566.50Q736 599 736 631L736 631Q736 704 686.50 753Q637 802 565 802L565 802L299 802L299 205L599 205Q666 205 711.50 252.50Q757 300 757 367L757 367Q757 415 732 454Q707 493 666 512L666 512ZM427 695L427 695L555 695Q581 695 600 676.50Q619 658 619 631L619 631Q619 605 600 586Q581 567 555 567L555 567L427 567L427 695ZM576 311L576 311L427 311L427 439L576 439Q603 439 621.50 420.50Q640 402 640 375L640 375Q640 349 621.50 330Q603 311 576 311Z"/></g></svg>