<svg xmlns="http://www.w3.org/2000/svg" viewBox="0 0 1024 1024"><g transform="translate(0,1024) scale(1,-1)"><path fill="currentColor" d="M572 427L572 427L798 653Q811 665 811 682.50Q811 700 798 713L798 713Q786 725 768 725Q750 725 738 713L738 713L512 487L286 713Q274 725 256 725Q238 725 226 713L226 713Q213 700 213 682.50Q213 665 226 653L226 653L452 427L226 201Q213 188 213 170.50Q213 153 226 141L226 141Q232 134 240 131Q248 128 256 128L256 128Q264 128 272 131Q280 134 286 141L286 141L512 366L738 141Q744 134 752 131Q760 128 768 128L768 128Q776 128 784 131Q792 134 798 141L798 141Q811 153 811 170.50Q811 188 798 201L798 201L572 427Z"/></g></svg>