<svg xmlns="http://www.w3.org/2000/svg" viewBox="0 0 1024 1024"><g transform="translate(0,1024) scale(1,-1)"><path fill="currentColor" d="M304 352L304 352Q304 309 320 271L320 271Q337 233 365 205Q393 177 431 160L431 160Q469 144 512 144L512 144Q555 144 593 160L593 160Q631 177 659 205Q687 233 704 271L704 271Q720 309 720 352L720 352Q720 395 704 433L704 433Q687 471 659 499Q631 527 593 544L593 544Q555 560 512 560L512 560Q469 560 431 544L431 544Q393 527 365 499Q337 471 320 433L320 433Q304 395 304 352ZM960 704L960 704L736 704Q724 752 706 792Q688 832 640 832L640 832L384 832Q336 832 318 792Q300 752 288 704L288 704L64 704Q38 704 19 685Q0 666 0 640L0 640L0 64Q0 38 19 19Q38 0 64 0L64 0L960 0Q986 0 1005 19Q1024 38 1024 64L1024 64L1024 640Q1024 666 1005 685Q986 704 960 704ZM512 68L512 68Q453 68 401 90L401 90Q350 113 311.50 151.50Q273 190 250 241L250 241Q228 293 228 352L228 352Q228 411 250 463L250 463Q273 514 311.50 552.50Q350 591 401 614L401 614Q453 636 512 636L512 636Q571 636 623 614L623 614Q674 591 712.50 552.50Q751 514 774 463L774 463Q796 411 796 352L796 352Q796 293 774 241L774 241Q751 190 712.50 151.50Q674 113 623 90L623 90Q571 68 512 68ZM960 576L960 512L832 512L832 576L960 576Z"/></g></svg>