<svg xmlns="http://www.w3.org/2000/svg" viewBox="0 0 1024 1024"><g transform="translate(0,1024) scale(1,-1)"><path fill="currentColor" d="M683 666L683 666L555 666L555 585L683 585Q755 585 806.50 533.50Q858 482 858 410L858 410Q858 337 806.50 286Q755 235 683 235L683 235L555 235L555 154L683 154Q736 154 782 174L782 174Q829 194 863.50 228.50Q898 263 919 310L919 310Q939 357 939 410L939 410Q939 463 919 509L919 509Q898 556 863.50 590.50Q829 625 782 646L782 646Q736 666 683 666L683 666ZM166 410L166 410Q166 482 217.50 533.50Q269 585 341 585L341 585L469 585L469 666L341 666Q288 666 242 645L242 645Q195 625 160.50 590.50Q126 556 105 509L105 509Q85 463 85 410L85 410Q85 357 105 310L105 310Q126 263 160.50 228.50Q195 194 242 174L242 174Q288 154 341 154L341 154L469 154L469 235L341 235Q269 235 217.50 286Q166 337 166 410L166 410ZM341 452L341 367L683 367L683 452L341 452Z"/></g></svg>