<svg xmlns="http://www.w3.org/2000/svg" viewBox="0 0 1024 1024"><g transform="translate(0,1024) scale(1,-1)"><path fill="currentColor" d="M85 290L85 247L171 247L171 226L128 226L128 183L171 183L171 162L85 162L85 119L213 119L213 290L85 290ZM128 631L128 631L171 631L171 802L85 802L85 759L128 759L128 631ZM85 503L85 503L162 503L85 414L85 375L213 375L213 418L137 418L213 508L213 546L85 546L85 503ZM299 759L299 759L299 674L896 674L896 759L299 759ZM299 162L299 162L896 162L896 247L299 247L299 162ZM299 418L299 418L896 418L896 503L299 503L299 418Z"/></g></svg>