<svg xmlns="http://www.w3.org/2000/svg" viewBox="0 0 1024 1024"><g transform="translate(0,1024) scale(1,-1)"><path fill="currentColor" d="M171 525L171 525Q144 525 125.50 506Q107 487 107 461L107 461Q107 434 125.50 415.50Q144 397 171 397L171 397Q197 397 216 415.50Q235 434 235 461L235 461Q235 487 216 506Q197 525 171 525ZM171 781L171 781Q144 781 125.50 762Q107 743 107 717L107 717Q107 690 125.50 671.50Q144 653 171 653L171 653Q197 653 216 671.50Q235 690 235 717L235 717Q235 743 216 762Q197 781 171 781ZM171 269L171 269Q144 269 125.50 250Q107 231 107 205L107 205Q107 179 125.50 160Q144 141 171 141L171 141Q197 141 216 160Q235 179 235 205L235 205Q235 231 216 250Q197 269 171 269ZM299 162L299 162L896 162L896 247L299 247L299 162ZM299 418L299 418L896 418L896 503L299 503L299 418ZM299 759L299 759L299 674L896 674L896 759L299 759Z"/></g></svg>