<svg xmlns="http://www.w3.org/2000/svg" viewBox="0 0 1024 1024"><g transform="translate(0,1024) scale(1,-1)"><path fill="currentColor" d="M194 128L194 128L252 320L516 320L574 128L688 128L496 768L272 768L80 128L194 128ZM348 640L348 640L420 640L478 448L290 448L348 640ZM704 768L1024 768L864 512L704 768ZM864 128L864 128L800 128Q787 128 777.50 137.50Q768 147 768 160L768 160Q768 173 777.50 182.50Q787 192 800 192L800 192L928 192Q941 192 950.50 201.50Q960 211 960 224L960 224Q960 237 950.50 246.50Q941 256 928 256L928 256L800 256Q760 256 732 228Q704 200 704 160L704 160Q704 142 710.50 125.50Q717 109 729 96L729 96Q742 81 760.50 72.50Q779 64 800 64L800 64L864 64Q877 64 886.50 54.50Q896 45 896 32L896 32Q896 19 886.50 9.50Q877 0 864 0L864 0L736 0Q723 0 713.50-9.50Q704-19 704-32L704-32Q704-45 713.50-54.50Q723-64 736-64L736-64L864-64Q904-64 932-36Q960-8 960 32L960 32Q960 50 953.50 66.50Q947 83 935 96L935 96Q922 111 903.50 119.50Q885 128 864 128Z"/></g></svg>