<svg xmlns="http://www.w3.org/2000/svg" viewBox="0 0 1024 1024"><g transform="translate(0,1024) scale(1,-1)"><path fill="currentColor" d="M194 128L194 128L252 320L516 320L574 128L688 128L496 768L272 768L80 128L194 128ZM348 640L348 640L420 640L478 448L290 448L348 640ZM1024 128L704 128L864 384L1024 128ZM864 832L864 832L800 832Q787 832 777.50 841.50Q768 851 768 864L768 864Q768 877 777.50 886.50Q787 896 800 896L800 896L928 896Q941 896 950.50 905.50Q960 915 960 928L960 928Q960 941 950.50 950.50Q941 960 928 960L928 960L800 960Q760 960 732 932Q704 904 704 864L704 864Q704 846 710.50 829.50Q717 813 729 800L729 800Q742 785 760.50 776.50Q779 768 800 768L800 768L864 768Q877 768 886.50 758.50Q896 749 896 736L896 736Q896 723 886.50 713.50Q877 704 864 704L864 704L736 704Q723 704 713.50 694.50Q704 685 704 672L704 672Q704 659 713.50 649.50Q723 640 736 640L736 640L864 640Q904 640 932 668Q960 696 960 736L960 736Q960 754 953.50 770.50Q947 787 935 800L935 800Q922 815 903.50 823.50Q885 832 864 832Z"/></g></svg>