<svg xmlns="http://www.w3.org/2000/svg" viewBox="0 0 1024 1024"><g transform="translate(0,1024) scale(1,-1)"><path fill="currentColor" d="M861 698L861 698L706 698L706 737Q706 785 672 819Q638 853 590 853L590 853L434 853Q386 853 352 819Q318 785 318 737L318 737L318 698L163 698Q147 698 135.50 686.50Q124 675 124 659L124 659Q124 643 135.50 632Q147 621 163 621L163 621L202 621L202 116Q202 68 236 34Q270 0 318 0L318 0L706 0Q754 0 788 34Q822 68 822 116L822 116L822 621L861 621Q877 621 888.50 632Q900 643 900 659L900 659Q900 675 888.50 686.50Q877 698 861 698L861 698ZM396 737L396 737Q396 753 407 764.50Q418 776 434 776L434 776L590 776Q606 776 617 764.50Q628 753 628 737L628 737L628 698L396 698L396 737ZM745 116L745 116Q745 100 733.50 89Q722 78 706 78L706 78L318 78Q302 78 290.50 89Q279 100 279 116L279 116L279 621L745 621L745 116ZM434 504L434 504Q418 504 407 492.50Q396 481 396 465L396 465L396 233Q396 217 407 205.50Q418 194 434 194L434 194Q450 194 461.50 205.50Q473 217 473 233L473 233L473 465Q473 481 461.50 492.50Q450 504 434 504ZM590 504L590 504Q574 504 562.50 492.50Q551 481 551 465L551 465L551 233Q551 217 562.50 205.50Q574 194 590 194L590 194Q606 194 617 205.50Q628 217 628 233L628 233L628 465Q628 481 617 492.50Q606 504 590 504Z"/></g></svg>