<svg xmlns="http://www.w3.org/2000/svg" viewBox="0 0 1024 1024"><g transform="translate(0,1024) scale(1,-1)"><path fill="currentColor" d="M512 247L512 247Q565 247 612 268L612 268Q658 288 693 322.50Q728 357 748 404L748 404Q768 451 768 503L768 503L768 845L661 845L661 503Q661 442 617.50 398Q574 354 512 354L512 354Q450 354 406.50 398Q363 442 363 503L363 503L363 845L256 845L256 503Q256 451 276 404L276 404Q296 357 331 322.50Q366 288 412 268L412 268Q459 247 512 247ZM213 162L213 162L213 77L811 77L811 162L213 162Z"/></g></svg>