<svg xmlns="http://www.w3.org/2000/svg" viewBox="0 0 1024 1024"><g transform="translate(0,1024) scale(1,-1)"><path fill="currentColor" d="M85 697L85 697L140 751L853 38L799-17L628 154L555 154L555 227L415 367L341 367L341 441L235 548Q203 524 184.50 488Q166 452 166 410L166 410Q166 337 217.50 286Q269 235 341 235L341 235L469 235L469 154L341 154Q288 154 242 174L242 174Q195 194 160.50 228.50Q126 263 105 310L105 310Q85 357 85 410L85 410Q85 468 110 519.50Q135 571 177 605L177 605L85 697ZM683 666L683 666Q736 666 782 645L782 645Q829 625 863.50 590.50Q898 556 919 509L919 509Q939 463 939 410L939 410Q939 339 903.50 280Q868 221 811 188L811 188L751 249Q798 269 828 312Q858 355 858 410L858 410Q858 482 806.50 533.50Q755 585 683 585L683 585L555 585L555 666L683 666ZM334 666L341 666L469 666L469 585L415 585L334 666ZM683 452L683 452L683 367L632 367L547 452L683 452Z"/></g></svg>